<svg width="20" height="16" viewBox="0 0 20 16" fill="none" xmlns="http://www.w3.org/2000/svg">
<path d="M6.02683 3.36713C5.72703 2.35145 4.91324 2.46277 4.35683 2.93583C2.9862 4.2019 1.20154 6.85933 2.34374 10.6858C3.30031 13.9276 7.28064 16.0007 7.28064 16.0007H2.64064C2.64064 16.0007 0.244811 13.3154 0.0306387 10.1572C-0.240621 6.16415 1.35857 3.64584 3.21463 2.00415C4.95645 0.459781 6.61263 0.000665665 6.61263 0.000665665L10.0005 11.1007L13.3883 0.000665665C13.3883 0.000665665 15.0445 0.459782 16.7863 2.00415C18.6424 3.64583 20.2415 6.16415 19.9703 10.1572C19.7561 13.3154 17.3603 16.0007 17.3603 16.0007H12.7203C12.7203 16.0007 16.7003 13.9276 17.6572 10.6858C18.7994 6.85976 17.0147 4.20234 15.6441 2.93583C15.0873 2.46277 14.2735 2.35145 13.9741 3.36713C12.9461 6.60887 10.0009 15.8971 10.0009 15.8971C10.0009 15.8971 7.05564 6.60577 6.02767 3.36713H6.02683Z" fill="white"/>
</svg>
